<svg width="100" height="118" viewBox="0 0 100 118" fill="none" xmlns="http://www.w3.org/2000/svg">
<circle cx="50" cy="50" r="50" fill="black"/>
<g clip-path="url(#clip0_329_16)">
<path d="M57.2146 45.8838C55.1782 43.7004 52.4167 42.4738 49.5374 42.4738C46.6581 42.4738 43.8966 43.7004 41.8602 45.8838L34.1805 54.1186C32.1441 56.3029 31 59.2655 31 62.3547C31 65.4438 32.1441 68.4064 34.1805 70.5908C36.217 72.7752 38.979 74.0023 41.8589 74.0023C44.7389 74.0023 47.5009 72.7752 49.5374 70.5908L53.376 66.4734" stroke="white" stroke-width="2" stroke-linecap="round" stroke-linejoin="round"/>
<path d="M49.5374 54.1185C51.5738 56.3019 54.3352 57.5285 57.2145 57.5285C60.0939 57.5285 62.8553 56.3019 64.8917 54.1185L72.5714 45.8838C74.6079 43.6994 75.7519 40.7368 75.7519 37.6476C75.7519 34.5585 74.6079 31.5959 72.5714 29.4115C70.535 27.2272 67.7729 26 64.893 26C62.013 26 59.251 27.2272 57.2145 29.4115L53.3759 33.5289" stroke="white" stroke-width="2" stroke-linecap="round" stroke-linejoin="round"/>
</g>
<defs>
<clipPath id="clip0_329_16">
<rect width="77" height="92" fill="white" transform="translate(23 26)"/>
</clipPath>
</defs>
</svg>
